<?xml version="1.0" encoding="UTF-8" standalone="no"?>
<!-- Created with Inkscape (http://www.inkscape.org/) -->

<svg
   xmlns:dc="http://purl.org/dc/elements/1.1/"
   xmlns:cc="http://creativecommons.org/ns#"
   xmlns:rdf="http://www.w3.org/1999/02/22-rdf-syntax-ns#"
   xmlns:svg="http://www.w3.org/2000/svg"
   xmlns="http://www.w3.org/2000/svg"
   xmlns:sodipodi="http://sodipodi.sourceforge.net/DTD/sodipodi-0.dtd"
   xmlns:inkscape="http://www.inkscape.org/namespaces/inkscape"
   width="100"
   height="100"
   viewBox="0 0 26.458333 26.458334"
   version="1.1"
   id="svg1876"
   inkscape:version="0.92.3 (2405546, 2018-03-11)"
   sodipodi:docname="39.svg">
  <defs
     id="defs1870">
    <inkscape:path-effect
       effect="powerstroke"
       id="path-effect2476"
       is_visible="true"
       offset_points="0.015004032,1.489488"
       sort_points="true"
       interpolator_type="CubicBezierJohan"
       interpolator_beta="0.2"
       start_linecap_type="zerowidth"
       linejoin_type="extrp_arc"
       miter_limit="4"
       end_linecap_type="zerowidth" />
    <inkscape:path-effect
       effect="powerstroke"
       id="path-effect2480"
       is_visible="true"
       offset_points="0.015004032,1.489488"
       sort_points="true"
       interpolator_type="CubicBezierJohan"
       interpolator_beta="0.2"
       start_linecap_type="zerowidth"
       linejoin_type="extrp_arc"
       miter_limit="4"
       end_linecap_type="zerowidth" />
    <inkscape:path-effect
       effect="powerstroke"
       id="path-effect2064"
       is_visible="true"
       offset_points="0.015004032,1.489488"
       sort_points="true"
       interpolator_type="CubicBezierJohan"
       interpolator_beta="0.2"
       start_linecap_type="zerowidth"
       linejoin_type="extrp_arc"
       miter_limit="4"
       end_linecap_type="zerowidth" />
    <inkscape:path-effect
       effect="powerstroke"
       id="path-effect2141"
       is_visible="true"
       offset_points="0.015004032,1.489488"
       sort_points="true"
       interpolator_type="CubicBezierJohan"
       interpolator_beta="0.2"
       start_linecap_type="zerowidth"
       linejoin_type="extrp_arc"
       miter_limit="4"
       end_linecap_type="zerowidth" />
    <inkscape:path-effect
       end_linecap_type="zerowidth"
       miter_limit="4"
       linejoin_type="extrp_arc"
       start_linecap_type="zerowidth"
       interpolator_beta="0.2"
       interpolator_type="CubicBezierJohan"
       sort_points="true"
       offset_points="0.015004032,1.489488"
       is_visible="true"
       id="path-effect1474"
       effect="powerstroke" />
    <inkscape:path-effect
       end_linecap_type="zerowidth"
       miter_limit="4"
       linejoin_type="extrp_arc"
       start_linecap_type="zerowidth"
       interpolator_beta="0.2"
       interpolator_type="CubicBezierJohan"
       sort_points="true"
       offset_points="0.015004032,1.489488"
       is_visible="true"
       id="path-effect1478"
       effect="powerstroke" />
    <inkscape:path-effect
       effect="powerstroke"
       id="path-effect1858"
       is_visible="true"
       offset_points="0.015004032,1.489488"
       sort_points="true"
       interpolator_type="CubicBezierJohan"
       interpolator_beta="0.2"
       start_linecap_type="zerowidth"
       linejoin_type="extrp_arc"
       miter_limit="4"
       end_linecap_type="zerowidth" />
    <inkscape:path-effect
       effect="powerstroke"
       id="path-effect2191"
       is_visible="true"
       offset_points="0.015004032,1.489488"
       sort_points="true"
       interpolator_type="CubicBezierJohan"
       interpolator_beta="0.2"
       start_linecap_type="zerowidth"
       linejoin_type="extrp_arc"
       miter_limit="4"
       end_linecap_type="zerowidth" />
    <inkscape:path-effect
       effect="powerstroke"
       id="path-effect2193"
       is_visible="true"
       offset_points="0.015004032,1.489488"
       sort_points="true"
       interpolator_type="CubicBezierJohan"
       interpolator_beta="0.2"
       start_linecap_type="zerowidth"
       linejoin_type="extrp_arc"
       miter_limit="4"
       end_linecap_type="zerowidth" />
    <inkscape:path-effect
       effect="powerstroke"
       id="path-effect2195"
       is_visible="true"
       offset_points="0.015004032,1.489488"
       sort_points="true"
       interpolator_type="CubicBezierJohan"
       interpolator_beta="0.2"
       start_linecap_type="zerowidth"
       linejoin_type="extrp_arc"
       miter_limit="4"
       end_linecap_type="zerowidth" />
    <inkscape:path-effect
       effect="powerstroke"
       id="path-effect2197"
       is_visible="true"
       offset_points="0.015004032,1.489488"
       sort_points="true"
       interpolator_type="CubicBezierJohan"
       interpolator_beta="0.2"
       start_linecap_type="zerowidth"
       linejoin_type="extrp_arc"
       miter_limit="4"
       end_linecap_type="zerowidth" />
  </defs>
  <sodipodi:namedview
     id="base"
     pagecolor="#ffffff"
     bordercolor="#666666"
     borderopacity="1.0"
     inkscape:pageopacity="0.0"
     inkscape:pageshadow="2"
     inkscape:zoom="2.8284271"
     inkscape:cx="30.691919"
     inkscape:cy="61.818388"
     inkscape:document-units="px"
     inkscape:current-layer="layer1"
     showgrid="false"
     units="px"
     fit-margin-top="0"
     fit-margin-left="0"
     fit-margin-right="0"
     fit-margin-bottom="0"
     inkscape:showpageshadow="false"
     inkscape:window-width="1366"
     inkscape:window-height="718"
     inkscape:window-x="0"
     inkscape:window-y="22"
     inkscape:window-maximized="1" />
  <metadata
     id="metadata1873">
    <rdf:RDF>
      <cc:Work
         rdf:about="">
        <dc:format>image/svg+xml</dc:format>
        <dc:type
           rdf:resource="http://purl.org/dc/dcmitype/StillImage" />
        <dc:title></dc:title>
      </cc:Work>
    </rdf:RDF>
  </metadata>
  <g
     inkscape:label="Layer 1"
     inkscape:groupmode="layer"
     id="layer1"
     transform="translate(131.02975,-196.70833)">
    <path
       inkscape:connector-curvature="0"
       style="color:#000000;font-style:normal;font-variant:normal;font-weight:normal;font-stretch:normal;font-size:medium;line-height:normal;font-family:sans-serif;font-variant-ligatures:normal;font-variant-position:normal;font-variant-caps:normal;font-variant-numeric:normal;font-variant-alternates:normal;font-feature-settings:normal;text-indent:0;text-align:start;text-decoration:none;text-decoration-line:none;text-decoration-style:solid;text-decoration-color:#000000;letter-spacing:normal;word-spacing:normal;text-transform:none;writing-mode:lr-tb;direction:ltr;text-orientation:mixed;dominant-baseline:auto;baseline-shift:baseline;text-anchor:start;white-space:normal;shape-padding:0;clip-rule:nonzero;display:inline;overflow:visible;visibility:visible;opacity:1;isolation:auto;mix-blend-mode:normal;color-interpolation:sRGB;color-interpolation-filters:linearRGB;solid-color:#000000;solid-opacity:1;vector-effect:none;fill:#000000;fill-opacity:1;fill-rule:nonzero;stroke:none;stroke-width:0.53527606;stroke-linecap:round;stroke-linejoin:round;stroke-miterlimit:4;stroke-dasharray:none;stroke-dashoffset:0;stroke-opacity:1;paint-order:fill markers stroke;color-rendering:auto;image-rendering:auto;shape-rendering:auto;text-rendering:auto;enable-background:accumulate"
       d="m -129.33865,199.35238 c -0.58754,6e-5 -1.06927,0.48235 -1.06927,1.07011 0,0.58764 0.48171,1.07004 1.06927,1.07004 0.52898,0 0.97206,-0.39115 1.0552,-0.89781 h 1.87108 l 4.03355,14.8923 a 0.26774663,0.26774663 0 0 0 0.002,0.006 0.26769953,0.26769953 0 0 0 0.005,0.0171 0.26774663,0.26774663 0 0 0 0.004,0.0115 0.26769953,0.26769953 0 0 0 0.007,0.0171 0.26774663,0.26774663 0 0 0 0.005,0.0115 0.26769953,0.26769953 0 0 0 0.008,0.0115 0.26774663,0.26774663 0 0 0 0.007,0.0115 0.26769953,0.26769953 0 0 0 0.008,0.0115 0.26774663,0.26774663 0 0 0 0.007,0.006 0.26769953,0.26769953 0 0 0 0.0109,0.0115 0.26774663,0.26774663 0 0 0 0.007,0.006 0.26769953,0.26769953 0 0 0 0.0126,0.0115 0.26774663,0.26774663 0 0 0 0.008,0.006 0.26769953,0.26769953 0 0 0 0.0126,0.0115 0.26774663,0.26774663 0 0 0 0.0104,0.006 0.26769953,0.26769953 0 0 0 0.0115,0.006 0.26774663,0.26774663 0 0 0 0.0119,0.006 0.26769953,0.26769953 0 0 0 0.0126,0.006 0.26774663,0.26774663 0 0 0 0.0121,0.005 0.26769953,0.26769953 0 0 0 0.0121,0.004 0.26774663,0.26774663 0 0 0 0.0137,0.004 0.26769953,0.26769953 0 0 0 0.0121,0.004 0.26774663,0.26774663 0 0 0 0.015,0.003 0.26769953,0.26769953 0 0 0 0.0104,0.002 0.26774663,0.26774663 0 0 0 0.0172,0.002 0.26769953,0.26769953 0 0 0 0.01,0 0.26774663,0.26774663 0 0 0 0.01,1.2e-4 h 15.37283 c 0.56683,0 1.01504,0.4485 1.01504,1.01613 0,0.5678 -0.44821,1.01647 -1.01504,1.01647 h -0.27455 c -0.26548,-0.91243 -1.10881,-1.58272 -2.10439,-1.58272 -0.99558,0 -1.83901,0.67029 -2.10449,1.58272 h -5.4599 c -0.26538,-0.91243 -1.10851,-1.58272 -2.10409,-1.58272 -0.99559,0 -1.83901,0.67029 -2.10448,1.58272 h -1.22403 a 0.26785,0.26785 0 1 0 0,0.5357 h 1.13858 c -8.4e-4,0.0229 -0.002,0.0516 -0.002,0.0757 0,1.20817 0.9844,2.19327 2.19181,2.19327 1.20738,0 2.19139,-0.9851 2.19139,-2.19327 0,-0.0229 -8.2e-4,-0.0516 -0.002,-0.0757 h 5.289 c -8.4e-4,0.0229 -0.002,0.0516 -0.002,0.0757 0,1.20817 0.98449,2.19327 2.1919,2.19327 1.2074,0 2.1918,-0.9851 2.1918,-2.19327 0,-0.0229 0,-0.0516 -0.002,-0.0757 h 0.18903 c 0.8544,0 1.55007,-0.69714 1.55007,-1.55194 0,-0.8548 -0.69567,-1.55148 -1.55007,-1.55148 h -15.17073 l -0.20281,-0.74863 h 12.58018 0.0304 a 0.26766479,0.26766479 0 0 0 0.25821,-0.19845 l 0.68938,-2.56457 a 0.26766479,0.26766479 0 0 0 7.7e-4,-0.004 l 0.6889,-2.56601 a 0.26766479,0.26766479 0 0 0 0,-0.002 l 0.31803,-1.18406 1.0801,-3.95041 a 0.26766479,0.26766479 0 0 0 -0.21095,-0.3338 0.26766479,0.26766479 0 0 0 -0.065,-0.006 h -18.30073 l -0.8846,-3.26523 a 0.26766479,0.26766479 0 0 0 -0.18204,-0.25121 0.26766479,0.26766479 0 0 0 -0.0901,-0.0171 0.26766479,0.26766479 0 0 0 -0.0487,0.004 h -2.08126 c -0.14958,-0.41123 -0.54496,-0.70729 -1.00538,-0.70729 z m 0,0.53569 c 0.2351,0 0.43125,0.14682 0.50385,0.35559 a 0.26766479,0.26766479 0 0 0 0.0281,0.22655 c -0.0235,0.27587 -0.25012,0.4875 -0.53195,0.4875 -0.29795,0 -0.53386,-0.23629 -0.53386,-0.53511 0,-0.29882 0.23591,-0.53453 0.53386,-0.53453 z m 4.53472,4.24113 h 3.62986 v 2.03256 h -3.09187 z m 4.16527,0 h 3.95429 v 2.03256 h -3.95429 z m 4.48934,0 h 3.95431 v 2.03256 h -3.95431 z m 4.48963,0 h 4.56228 l -0.54612,2.03256 h -4.01612 z m -12.4648,2.56795 h 2.95042 v 2.03262 h -2.41243 z m 3.48583,0 h 3.95429 v 2.03262 h -3.95429 z m 4.48934,0 h 3.95431 v 2.03262 h -3.95431 z m 4.48963,0 h 3.87251 l -0.27123,1.00914 -0.27989,1.02348 h -3.32142 z m -11.78506,2.56807 h 2.27068 v 2.0325 h -1.73268 z m 2.80609,0 h 3.95429 v 2.0325 h -3.95429 z m 4.48934,0 h 3.95431 v 2.0325 h -3.95431 z m 4.48963,0 h 3.17505 l -0.55569,2.0325 h -2.61935 z m -11.10531,2.56756 h 1.59093 v 2.03261 h -1.05295 z m 2.12634,0 h 3.95429 v 2.03261 h -3.95429 z m 4.48934,0 h 3.95431 v 2.03261 h -3.95431 z m 4.48963,0 h 2.47306 l -0.55581,2.03261 h -1.91725 z m -7.1324,4.83721 c 0.91783,0 1.65637,0.73911 1.65637,1.65827 0,0.91915 -0.73854,1.65797 -1.65637,1.65797 -0.91784,0 -1.65648,-0.73882 -1.65648,-1.65797 0,-0.91916 0.73864,-1.65827 1.65648,-1.65827 z m 9.66846,0 c 0.91784,0 1.65637,0.73911 1.65637,1.65827 0,0.91915 -0.73853,1.65797 -1.65637,1.65797 -0.91784,0 -1.65649,-0.73882 -1.65649,-1.65797 0,-0.91916 0.73865,-1.65827 1.65649,-1.65827 z"
       id="path1934" />
  </g>
</svg>
